<mxfile host="app.diagrams.net" modified="2023-12-14T17:55:49.601Z" agent="Mozilla/5.0 (X11; Linux x86_64) AppleWebKit/537.36 (KHTML, like Gecko) Chrome/114.0.0.0 Safari/537.36" etag="2YvKjeoo9Dbsg8qM2pGX" version="22.1.9" type="github" pages="2">
  <diagram name="Ejer 5" id="e0s5WDCYXGj3JUG0G63q">
    <mxGraphModel dx="1434" dy="769" grid="0" gridSize="10" guides="1" tooltips="1" connect="1" arrows="1" fold="1" page="1" pageScale="1" pageWidth="1169" pageHeight="827" math="0" shadow="0">
      <root>
        <mxCell id="0" />
        <mxCell id="1" parent="0" />
        <mxCell id="AYBirxhdglIB1iH5XuUd-1" value="&lt;ol style=&quot;font-size: medium; text-align: start;&quot;&gt;&lt;li&gt;&lt;p style=&quot;margin-bottom: 0cm; line-height: 1.15px; background: transparent;&quot; align=&quot;left&quot;&gt;Crea el siguiente diagrama E-R y realiza la transformación al modelo relacional.&lt;/p&gt;&lt;/li&gt;&lt;/ol&gt;&lt;p style=&quot;margin-bottom: 0cm; line-height: 1.15px; background: transparent; font-size: medium; margin-left: 1.27cm;&quot; align=&quot;left&quot;&gt;&lt;br&gt;&lt;/p&gt;&lt;p style=&quot;margin-bottom: 0cm; line-height: 1.15px; background: transparent; font-size: medium; margin-left: 1.27cm;&quot; align=&quot;justify&quot;&gt;Se quiere informatizar la gestión de los suministros por parte de las empresas. Las empresas pueden enviar 1 o varios &lt;u&gt;suministros&lt;/u&gt;,&amp;nbsp;&lt;/p&gt;&lt;p style=&quot;margin-bottom: 0cm; line-height: 1.15px; background: transparent; font-size: medium; margin-left: 1.27cm;&quot; align=&quot;justify&quot;&gt;mientras que un suministro sólo puede ser enviado por una empresa. Se quiere registrar el (cod_empresa, nombre, dirección y CIF de la empresa,&amp;nbsp;&lt;/p&gt;&lt;p style=&quot;margin-bottom: 0cm; line-height: 1.15px; background: transparent; font-size: medium; margin-left: 1.27cm;&quot; align=&quot;justify&quot;&gt;y el tipo y precio del suministro)&lt;/p&gt;&lt;p style=&quot;margin-bottom: 0cm; line-height: 1.15px; background: transparent; font-size: medium; margin-left: 1.27cm;&quot; align=&quot;justify&quot;&gt;Los suministros contienen &lt;u&gt;piezas&lt;/u&gt;, de las cuales se quiere guardar el (nombre y modelo).&lt;/p&gt;&lt;p style=&quot;margin-bottom: 0cm; line-height: 1.15px; background: transparent; font-size: medium; margin-left: 1.27cm;&quot; align=&quot;justify&quot;&gt;Un suministro puede contener 1 o varias piezas, mientras que 1 o varias piezas pueden ser contenidas en un suministro.&lt;/p&gt;" style="text;html=1;align=center;verticalAlign=middle;resizable=0;points=[];autosize=1;strokeColor=none;fillColor=none;" parent="1" vertex="1">
          <mxGeometry x="15" y="20" width="1120" height="140" as="geometry" />
        </mxCell>
        <mxCell id="AYBirxhdglIB1iH5XuUd-2" value="Piezas" style="whiteSpace=wrap;html=1;align=center;" parent="1" vertex="1">
          <mxGeometry x="720" y="394" width="100" height="40" as="geometry" />
        </mxCell>
        <mxCell id="AYBirxhdglIB1iH5XuUd-5" style="rounded=0;orthogonalLoop=1;jettySize=auto;html=1;entryX=0;entryY=0.5;entryDx=0;entryDy=0;endArrow=none;endFill=0;" parent="1" source="AYBirxhdglIB1iH5XuUd-3" target="AYBirxhdglIB1iH5XuUd-4" edge="1">
          <mxGeometry relative="1" as="geometry" />
        </mxCell>
        <mxCell id="AYBirxhdglIB1iH5XuUd-3" value="Suministros" style="whiteSpace=wrap;html=1;align=center;" parent="1" vertex="1">
          <mxGeometry x="340" y="394" width="100" height="40" as="geometry" />
        </mxCell>
        <mxCell id="AYBirxhdglIB1iH5XuUd-6" style="rounded=0;orthogonalLoop=1;jettySize=auto;html=1;endArrow=none;endFill=0;" parent="1" source="AYBirxhdglIB1iH5XuUd-4" target="AYBirxhdglIB1iH5XuUd-2" edge="1">
          <mxGeometry relative="1" as="geometry" />
        </mxCell>
        <mxCell id="AYBirxhdglIB1iH5XuUd-4" value="contiene" style="shape=rhombus;perimeter=rhombusPerimeter;whiteSpace=wrap;html=1;align=center;" parent="1" vertex="1">
          <mxGeometry x="525" y="384" width="120" height="60" as="geometry" />
        </mxCell>
        <mxCell id="AYBirxhdglIB1iH5XuUd-18" style="edgeStyle=none;shape=connector;rounded=0;orthogonalLoop=1;jettySize=auto;html=1;labelBackgroundColor=default;strokeColor=default;align=center;verticalAlign=middle;fontFamily=Helvetica;fontSize=11;fontColor=default;endArrow=none;endFill=0;" parent="1" source="AYBirxhdglIB1iH5XuUd-7" target="AYBirxhdglIB1iH5XuUd-3" edge="1">
          <mxGeometry relative="1" as="geometry" />
        </mxCell>
        <mxCell id="AYBirxhdglIB1iH5XuUd-7" value="cod_empresa" style="ellipse;whiteSpace=wrap;html=1;align=center;fontStyle=4;fontFamily=Helvetica;fontSize=11;fontColor=default;" parent="1" vertex="1">
          <mxGeometry x="340" y="280" width="100" height="40" as="geometry" />
        </mxCell>
        <mxCell id="AYBirxhdglIB1iH5XuUd-17" style="edgeStyle=none;shape=connector;rounded=0;orthogonalLoop=1;jettySize=auto;html=1;labelBackgroundColor=default;strokeColor=default;align=center;verticalAlign=middle;fontFamily=Helvetica;fontSize=11;fontColor=default;endArrow=none;endFill=0;" parent="1" source="AYBirxhdglIB1iH5XuUd-8" target="AYBirxhdglIB1iH5XuUd-3" edge="1">
          <mxGeometry relative="1" as="geometry" />
        </mxCell>
        <mxCell id="AYBirxhdglIB1iH5XuUd-8" value="Nombre" style="ellipse;whiteSpace=wrap;html=1;align=center;fontFamily=Helvetica;fontSize=11;fontColor=default;" parent="1" vertex="1">
          <mxGeometry x="220" y="300" width="100" height="40" as="geometry" />
        </mxCell>
        <mxCell id="AYBirxhdglIB1iH5XuUd-16" style="edgeStyle=none;shape=connector;rounded=0;orthogonalLoop=1;jettySize=auto;html=1;labelBackgroundColor=default;strokeColor=default;align=center;verticalAlign=middle;fontFamily=Helvetica;fontSize=11;fontColor=default;endArrow=none;endFill=0;" parent="1" source="AYBirxhdglIB1iH5XuUd-9" target="AYBirxhdglIB1iH5XuUd-3" edge="1">
          <mxGeometry relative="1" as="geometry" />
        </mxCell>
        <mxCell id="AYBirxhdglIB1iH5XuUd-9" value="Dirección" style="ellipse;whiteSpace=wrap;html=1;align=center;fontFamily=Helvetica;fontSize=11;fontColor=default;" parent="1" vertex="1">
          <mxGeometry x="160" y="360" width="100" height="40" as="geometry" />
        </mxCell>
        <mxCell id="AYBirxhdglIB1iH5XuUd-15" style="edgeStyle=none;shape=connector;rounded=0;orthogonalLoop=1;jettySize=auto;html=1;labelBackgroundColor=default;strokeColor=default;align=center;verticalAlign=middle;fontFamily=Helvetica;fontSize=11;fontColor=default;endArrow=none;endFill=0;" parent="1" source="AYBirxhdglIB1iH5XuUd-10" target="AYBirxhdglIB1iH5XuUd-3" edge="1">
          <mxGeometry relative="1" as="geometry" />
        </mxCell>
        <mxCell id="AYBirxhdglIB1iH5XuUd-10" value="CIF_empresa" style="ellipse;whiteSpace=wrap;html=1;align=center;fontFamily=Helvetica;fontSize=11;fontColor=default;" parent="1" vertex="1">
          <mxGeometry x="160" y="429" width="100" height="40" as="geometry" />
        </mxCell>
        <mxCell id="AYBirxhdglIB1iH5XuUd-14" style="edgeStyle=none;shape=connector;rounded=0;orthogonalLoop=1;jettySize=auto;html=1;labelBackgroundColor=default;strokeColor=default;align=center;verticalAlign=middle;fontFamily=Helvetica;fontSize=11;fontColor=default;endArrow=none;endFill=0;" parent="1" source="AYBirxhdglIB1iH5XuUd-11" target="AYBirxhdglIB1iH5XuUd-3" edge="1">
          <mxGeometry relative="1" as="geometry" />
        </mxCell>
        <mxCell id="AYBirxhdglIB1iH5XuUd-11" value="Tipo" style="ellipse;whiteSpace=wrap;html=1;align=center;fontFamily=Helvetica;fontSize=11;fontColor=default;" parent="1" vertex="1">
          <mxGeometry x="200" y="490" width="100" height="40" as="geometry" />
        </mxCell>
        <mxCell id="AYBirxhdglIB1iH5XuUd-13" style="edgeStyle=none;shape=connector;rounded=0;orthogonalLoop=1;jettySize=auto;html=1;labelBackgroundColor=default;strokeColor=default;align=center;verticalAlign=middle;fontFamily=Helvetica;fontSize=11;fontColor=default;endArrow=none;endFill=0;" parent="1" source="AYBirxhdglIB1iH5XuUd-12" target="AYBirxhdglIB1iH5XuUd-3" edge="1">
          <mxGeometry relative="1" as="geometry" />
        </mxCell>
        <mxCell id="AYBirxhdglIB1iH5XuUd-12" value="Precio del suministro" style="ellipse;whiteSpace=wrap;html=1;align=center;fontFamily=Helvetica;fontSize=11;fontColor=default;" parent="1" vertex="1">
          <mxGeometry x="330" y="510" width="100" height="40" as="geometry" />
        </mxCell>
        <mxCell id="AYBirxhdglIB1iH5XuUd-19" value="(1,n)" style="text;html=1;align=center;verticalAlign=middle;resizable=0;points=[];autosize=1;strokeColor=none;fillColor=none;fontSize=11;fontFamily=Helvetica;fontColor=default;" parent="1" vertex="1">
          <mxGeometry x="678" y="384" width="50" height="30" as="geometry" />
        </mxCell>
        <mxCell id="AYBirxhdglIB1iH5XuUd-20" value="(1,n)" style="text;html=1;align=center;verticalAlign=middle;resizable=0;points=[];autosize=1;strokeColor=none;fillColor=none;fontSize=11;fontFamily=Helvetica;fontColor=default;" parent="1" vertex="1">
          <mxGeometry x="433" y="384" width="50" height="30" as="geometry" />
        </mxCell>
        <mxCell id="AYBirxhdglIB1iH5XuUd-21" value="1:N" style="text;html=1;align=center;verticalAlign=middle;resizable=0;points=[];autosize=1;strokeColor=none;fillColor=none;fontSize=11;fontFamily=Helvetica;fontColor=default;" parent="1" vertex="1">
          <mxGeometry x="565" y="354" width="40" height="30" as="geometry" />
        </mxCell>
        <mxCell id="AYBirxhdglIB1iH5XuUd-27" style="edgeStyle=none;shape=connector;rounded=0;orthogonalLoop=1;jettySize=auto;html=1;labelBackgroundColor=default;strokeColor=default;align=center;verticalAlign=middle;fontFamily=Helvetica;fontSize=11;fontColor=default;endArrow=none;endFill=0;" parent="1" source="AYBirxhdglIB1iH5XuUd-22" target="AYBirxhdglIB1iH5XuUd-2" edge="1">
          <mxGeometry relative="1" as="geometry" />
        </mxCell>
        <mxCell id="AYBirxhdglIB1iH5XuUd-22" value="Nombre" style="ellipse;whiteSpace=wrap;html=1;align=center;fontFamily=Helvetica;fontSize=11;fontColor=default;" parent="1" vertex="1">
          <mxGeometry x="810" y="320" width="100" height="40" as="geometry" />
        </mxCell>
        <mxCell id="AYBirxhdglIB1iH5XuUd-26" style="edgeStyle=none;shape=connector;rounded=0;orthogonalLoop=1;jettySize=auto;html=1;labelBackgroundColor=default;strokeColor=default;align=center;verticalAlign=middle;fontFamily=Helvetica;fontSize=11;fontColor=default;endArrow=none;endFill=0;" parent="1" source="AYBirxhdglIB1iH5XuUd-23" target="AYBirxhdglIB1iH5XuUd-2" edge="1">
          <mxGeometry relative="1" as="geometry" />
        </mxCell>
        <mxCell id="AYBirxhdglIB1iH5XuUd-23" value="Modelo" style="ellipse;whiteSpace=wrap;html=1;align=center;fontFamily=Helvetica;fontSize=11;fontColor=default;" parent="1" vertex="1">
          <mxGeometry x="870" y="394" width="100" height="40" as="geometry" />
        </mxCell>
        <mxCell id="AYBirxhdglIB1iH5XuUd-25" style="edgeStyle=none;shape=connector;rounded=0;orthogonalLoop=1;jettySize=auto;html=1;labelBackgroundColor=default;strokeColor=default;align=center;verticalAlign=middle;fontFamily=Helvetica;fontSize=11;fontColor=default;endArrow=none;endFill=0;" parent="1" source="AYBirxhdglIB1iH5XuUd-24" target="AYBirxhdglIB1iH5XuUd-2" edge="1">
          <mxGeometry relative="1" as="geometry" />
        </mxCell>
        <mxCell id="AYBirxhdglIB1iH5XuUd-24" value="idPiezas" style="whiteSpace=wrap;html=1;align=center;fontFamily=Helvetica;fontSize=11;fontColor=default;shape=ellipse;perimeter=ellipsePerimeter;fontStyle=4;" parent="1" vertex="1">
          <mxGeometry x="810" y="460" width="100" height="40" as="geometry" />
        </mxCell>
      </root>
    </mxGraphModel>
  </diagram>
  <diagram id="0GDaJqZJSfnTfJOrazhM" name="Ejer 7">
    <mxGraphModel dx="1434" dy="769" grid="0" gridSize="10" guides="1" tooltips="1" connect="1" arrows="1" fold="1" page="1" pageScale="1" pageWidth="1169" pageHeight="827" math="0" shadow="0">
      <root>
        <mxCell id="0" />
        <mxCell id="1" parent="0" />
        <mxCell id="9MxUiUl3JJpYLOgqMqzK-6" style="rounded=0;orthogonalLoop=1;jettySize=auto;html=1;endArrow=none;endFill=0;" edge="1" parent="1" source="9MxUiUl3JJpYLOgqMqzK-2" target="9MxUiUl3JJpYLOgqMqzK-4">
          <mxGeometry relative="1" as="geometry" />
        </mxCell>
        <mxCell id="9MxUiUl3JJpYLOgqMqzK-30" style="edgeStyle=none;shape=connector;rounded=0;orthogonalLoop=1;jettySize=auto;html=1;labelBackgroundColor=default;strokeColor=default;align=center;verticalAlign=middle;fontFamily=Helvetica;fontSize=11;fontColor=default;endArrow=none;endFill=0;" edge="1" parent="1" source="9MxUiUl3JJpYLOgqMqzK-2" target="9MxUiUl3JJpYLOgqMqzK-29">
          <mxGeometry relative="1" as="geometry" />
        </mxCell>
        <mxCell id="9MxUiUl3JJpYLOgqMqzK-2" value="Coche" style="whiteSpace=wrap;html=1;align=center;" vertex="1" parent="1">
          <mxGeometry x="340" y="430" width="100" height="40" as="geometry" />
        </mxCell>
        <mxCell id="9MxUiUl3JJpYLOgqMqzK-13" style="edgeStyle=none;shape=connector;rounded=0;orthogonalLoop=1;jettySize=auto;html=1;labelBackgroundColor=default;strokeColor=default;align=center;verticalAlign=middle;fontFamily=Helvetica;fontSize=11;fontColor=default;endArrow=none;endFill=0;" edge="1" parent="1" source="9MxUiUl3JJpYLOgqMqzK-3" target="9MxUiUl3JJpYLOgqMqzK-12">
          <mxGeometry relative="1" as="geometry" />
        </mxCell>
        <mxCell id="9MxUiUl3JJpYLOgqMqzK-3" value="Mecanico" style="whiteSpace=wrap;html=1;align=center;" vertex="1" parent="1">
          <mxGeometry x="340" y="200" width="100" height="40" as="geometry" />
        </mxCell>
        <mxCell id="9MxUiUl3JJpYLOgqMqzK-4" value="id" style="ellipse;whiteSpace=wrap;html=1;align=center;fontStyle=4;" vertex="1" parent="1">
          <mxGeometry x="130" y="430" width="100" height="40" as="geometry" />
        </mxCell>
        <mxCell id="9MxUiUl3JJpYLOgqMqzK-7" style="edgeStyle=none;shape=connector;rounded=0;orthogonalLoop=1;jettySize=auto;html=1;labelBackgroundColor=default;strokeColor=default;align=center;verticalAlign=middle;fontFamily=Helvetica;fontSize=11;fontColor=default;endArrow=none;endFill=0;" edge="1" parent="1" source="9MxUiUl3JJpYLOgqMqzK-5" target="9MxUiUl3JJpYLOgqMqzK-2">
          <mxGeometry relative="1" as="geometry">
            <mxPoint x="412" y="520" as="targetPoint" />
          </mxGeometry>
        </mxCell>
        <mxCell id="9MxUiUl3JJpYLOgqMqzK-5" value="matricula" style="ellipse;whiteSpace=wrap;html=1;align=center;" vertex="1" parent="1">
          <mxGeometry x="180" y="520" width="100" height="40" as="geometry" />
        </mxCell>
        <mxCell id="9MxUiUl3JJpYLOgqMqzK-9" style="edgeStyle=none;shape=connector;rounded=0;orthogonalLoop=1;jettySize=auto;html=1;labelBackgroundColor=default;strokeColor=default;align=center;verticalAlign=middle;fontFamily=Helvetica;fontSize=11;fontColor=default;endArrow=none;endFill=0;" edge="1" parent="1" source="9MxUiUl3JJpYLOgqMqzK-8" target="9MxUiUl3JJpYLOgqMqzK-2">
          <mxGeometry relative="1" as="geometry" />
        </mxCell>
        <mxCell id="9MxUiUl3JJpYLOgqMqzK-8" value="modelo" style="ellipse;whiteSpace=wrap;html=1;align=center;" vertex="1" parent="1">
          <mxGeometry x="140" y="480" width="100" height="40" as="geometry" />
        </mxCell>
        <mxCell id="9MxUiUl3JJpYLOgqMqzK-11" style="edgeStyle=none;shape=connector;rounded=0;orthogonalLoop=1;jettySize=auto;html=1;labelBackgroundColor=default;strokeColor=default;align=center;verticalAlign=middle;fontFamily=Helvetica;fontSize=11;fontColor=default;endArrow=none;endFill=0;" edge="1" parent="1" source="9MxUiUl3JJpYLOgqMqzK-10" target="9MxUiUl3JJpYLOgqMqzK-2">
          <mxGeometry relative="1" as="geometry">
            <mxPoint x="432.3076923076924" y="520" as="targetPoint" />
          </mxGeometry>
        </mxCell>
        <mxCell id="9MxUiUl3JJpYLOgqMqzK-10" value="marca" style="ellipse;whiteSpace=wrap;html=1;align=center;" vertex="1" parent="1">
          <mxGeometry x="450" y="530" width="100" height="40" as="geometry" />
        </mxCell>
        <mxCell id="9MxUiUl3JJpYLOgqMqzK-14" style="edgeStyle=none;shape=connector;rounded=0;orthogonalLoop=1;jettySize=auto;html=1;labelBackgroundColor=default;strokeColor=default;align=center;verticalAlign=middle;fontFamily=Helvetica;fontSize=11;fontColor=default;endArrow=none;endFill=0;" edge="1" parent="1" source="9MxUiUl3JJpYLOgqMqzK-12" target="9MxUiUl3JJpYLOgqMqzK-2">
          <mxGeometry relative="1" as="geometry" />
        </mxCell>
        <mxCell id="9MxUiUl3JJpYLOgqMqzK-12" value="reparan" style="shape=rhombus;perimeter=rhombusPerimeter;whiteSpace=wrap;html=1;align=center;fontFamily=Helvetica;fontSize=11;fontColor=default;" vertex="1" parent="1">
          <mxGeometry x="330" y="300" width="120" height="60" as="geometry" />
        </mxCell>
        <mxCell id="9MxUiUl3JJpYLOgqMqzK-16" style="edgeStyle=none;shape=connector;rounded=0;orthogonalLoop=1;jettySize=auto;html=1;labelBackgroundColor=default;strokeColor=default;align=center;verticalAlign=middle;fontFamily=Helvetica;fontSize=11;fontColor=default;endArrow=none;endFill=0;" edge="1" parent="1" source="9MxUiUl3JJpYLOgqMqzK-15" target="9MxUiUl3JJpYLOgqMqzK-2">
          <mxGeometry relative="1" as="geometry">
            <mxPoint x="448.57142857142867" y="520" as="targetPoint" />
          </mxGeometry>
        </mxCell>
        <mxCell id="9MxUiUl3JJpYLOgqMqzK-15" value="color" style="ellipse;whiteSpace=wrap;html=1;align=center;" vertex="1" parent="1">
          <mxGeometry x="460" y="480" width="100" height="40" as="geometry" />
        </mxCell>
        <mxCell id="9MxUiUl3JJpYLOgqMqzK-18" style="edgeStyle=none;shape=connector;rounded=0;orthogonalLoop=1;jettySize=auto;html=1;labelBackgroundColor=default;strokeColor=default;align=center;verticalAlign=middle;fontFamily=Helvetica;fontSize=11;fontColor=default;endArrow=none;endFill=0;" edge="1" parent="1" source="9MxUiUl3JJpYLOgqMqzK-17" target="9MxUiUl3JJpYLOgqMqzK-2">
          <mxGeometry relative="1" as="geometry" />
        </mxCell>
        <mxCell id="9MxUiUl3JJpYLOgqMqzK-17" value="fecha_reparacion" style="ellipse;whiteSpace=wrap;html=1;align=center;" vertex="1" parent="1">
          <mxGeometry x="120" y="374" width="100" height="40" as="geometry" />
        </mxCell>
        <mxCell id="9MxUiUl3JJpYLOgqMqzK-20" style="edgeStyle=none;shape=connector;rounded=0;orthogonalLoop=1;jettySize=auto;html=1;labelBackgroundColor=default;strokeColor=default;align=center;verticalAlign=middle;fontFamily=Helvetica;fontSize=11;fontColor=default;endArrow=none;endFill=0;" edge="1" parent="1" source="9MxUiUl3JJpYLOgqMqzK-19" target="9MxUiUl3JJpYLOgqMqzK-2">
          <mxGeometry relative="1" as="geometry" />
        </mxCell>
        <mxCell id="9MxUiUl3JJpYLOgqMqzK-19" value="numeroHorasUtilizadas" style="ellipse;whiteSpace=wrap;html=1;align=center;" vertex="1" parent="1">
          <mxGeometry x="215" y="355" width="140" height="40" as="geometry" />
        </mxCell>
        <mxCell id="9MxUiUl3JJpYLOgqMqzK-24" style="edgeStyle=none;shape=connector;rounded=0;orthogonalLoop=1;jettySize=auto;html=1;labelBackgroundColor=default;strokeColor=default;align=center;verticalAlign=middle;fontFamily=Helvetica;fontSize=11;fontColor=default;endArrow=none;endFill=0;" edge="1" parent="1" source="9MxUiUl3JJpYLOgqMqzK-21" target="9MxUiUl3JJpYLOgqMqzK-23">
          <mxGeometry relative="1" as="geometry" />
        </mxCell>
        <mxCell id="9MxUiUl3JJpYLOgqMqzK-21" value="Cliente" style="whiteSpace=wrap;html=1;align=center;" vertex="1" parent="1">
          <mxGeometry x="680" y="430" width="100" height="40" as="geometry" />
        </mxCell>
        <mxCell id="9MxUiUl3JJpYLOgqMqzK-25" style="edgeStyle=none;shape=connector;rounded=0;orthogonalLoop=1;jettySize=auto;html=1;labelBackgroundColor=default;strokeColor=default;align=center;verticalAlign=middle;fontFamily=Helvetica;fontSize=11;fontColor=default;endArrow=none;endFill=0;" edge="1" parent="1" source="9MxUiUl3JJpYLOgqMqzK-23" target="9MxUiUl3JJpYLOgqMqzK-2">
          <mxGeometry relative="1" as="geometry" />
        </mxCell>
        <mxCell id="9MxUiUl3JJpYLOgqMqzK-23" value="son comprados por" style="shape=rhombus;perimeter=rhombusPerimeter;whiteSpace=wrap;html=1;align=center;fontFamily=Helvetica;fontSize=11;fontColor=default;" vertex="1" parent="1">
          <mxGeometry x="500" y="420" width="120" height="60" as="geometry" />
        </mxCell>
        <mxCell id="9MxUiUl3JJpYLOgqMqzK-28" style="edgeStyle=none;shape=connector;rounded=0;orthogonalLoop=1;jettySize=auto;html=1;labelBackgroundColor=default;strokeColor=default;align=center;verticalAlign=middle;fontFamily=Helvetica;fontSize=11;fontColor=default;endArrow=none;endFill=0;" edge="1" parent="1" source="9MxUiUl3JJpYLOgqMqzK-27" target="9MxUiUl3JJpYLOgqMqzK-21">
          <mxGeometry relative="1" as="geometry" />
        </mxCell>
        <mxCell id="9MxUiUl3JJpYLOgqMqzK-27" value="id" style="ellipse;whiteSpace=wrap;html=1;align=center;fontStyle=4;" vertex="1" parent="1">
          <mxGeometry x="620" y="500" width="100" height="40" as="geometry" />
        </mxCell>
        <mxCell id="9MxUiUl3JJpYLOgqMqzK-29" value="" style="strokeWidth=2;html=1;shape=mxgraph.flowchart.merge_or_storage;whiteSpace=wrap;fontFamily=Helvetica;fontSize=11;fontColor=default;" vertex="1" parent="1">
          <mxGeometry x="360" y="525" width="60" height="50" as="geometry" />
        </mxCell>
        <mxCell id="9MxUiUl3JJpYLOgqMqzK-32" style="edgeStyle=none;shape=connector;rounded=0;orthogonalLoop=1;jettySize=auto;html=1;labelBackgroundColor=default;strokeColor=default;align=center;verticalAlign=middle;fontFamily=Helvetica;fontSize=11;fontColor=default;endArrow=none;endFill=0;entryX=0.235;entryY=0.541;entryDx=0;entryDy=0;entryPerimeter=0;" edge="1" parent="1" source="9MxUiUl3JJpYLOgqMqzK-31" target="9MxUiUl3JJpYLOgqMqzK-29">
          <mxGeometry relative="1" as="geometry" />
        </mxCell>
        <mxCell id="9MxUiUl3JJpYLOgqMqzK-31" value="Coche nuevo" style="whiteSpace=wrap;html=1;align=center;fontFamily=Helvetica;fontSize=11;fontColor=default;" vertex="1" parent="1">
          <mxGeometry x="260" y="610" width="100" height="40" as="geometry" />
        </mxCell>
        <mxCell id="9MxUiUl3JJpYLOgqMqzK-33" value="Coche usado" style="whiteSpace=wrap;html=1;align=center;fontFamily=Helvetica;fontSize=11;fontColor=default;" vertex="1" parent="1">
          <mxGeometry x="420" y="610" width="100" height="40" as="geometry" />
        </mxCell>
        <mxCell id="9MxUiUl3JJpYLOgqMqzK-34" style="edgeStyle=none;shape=connector;rounded=0;orthogonalLoop=1;jettySize=auto;html=1;entryX=0.729;entryY=0.555;entryDx=0;entryDy=0;entryPerimeter=0;labelBackgroundColor=default;strokeColor=default;align=center;verticalAlign=middle;fontFamily=Helvetica;fontSize=11;fontColor=default;endArrow=none;endFill=0;" edge="1" parent="1" source="9MxUiUl3JJpYLOgqMqzK-33" target="9MxUiUl3JJpYLOgqMqzK-29">
          <mxGeometry relative="1" as="geometry" />
        </mxCell>
        <mxCell id="9MxUiUl3JJpYLOgqMqzK-36" style="edgeStyle=none;shape=connector;rounded=0;orthogonalLoop=1;jettySize=auto;html=1;labelBackgroundColor=default;strokeColor=default;align=center;verticalAlign=middle;fontFamily=Helvetica;fontSize=11;fontColor=default;endArrow=none;endFill=0;" edge="1" parent="1" source="9MxUiUl3JJpYLOgqMqzK-35" target="9MxUiUl3JJpYLOgqMqzK-31">
          <mxGeometry relative="1" as="geometry" />
        </mxCell>
        <mxCell id="9MxUiUl3JJpYLOgqMqzK-35" value="Numero de unidades" style="ellipse;whiteSpace=wrap;html=1;align=center;fontFamily=Helvetica;fontSize=11;fontColor=default;" vertex="1" parent="1">
          <mxGeometry x="260" y="680" width="100" height="40" as="geometry" />
        </mxCell>
        <mxCell id="9MxUiUl3JJpYLOgqMqzK-38" style="edgeStyle=none;shape=connector;rounded=0;orthogonalLoop=1;jettySize=auto;html=1;labelBackgroundColor=default;strokeColor=default;align=center;verticalAlign=middle;fontFamily=Helvetica;fontSize=11;fontColor=default;endArrow=none;endFill=0;" edge="1" parent="1" source="9MxUiUl3JJpYLOgqMqzK-37" target="9MxUiUl3JJpYLOgqMqzK-33">
          <mxGeometry relative="1" as="geometry" />
        </mxCell>
        <mxCell id="9MxUiUl3JJpYLOgqMqzK-37" value="Numero de kilometros hechos" style="ellipse;whiteSpace=wrap;html=1;align=center;fontFamily=Helvetica;fontSize=11;fontColor=default;" vertex="1" parent="1">
          <mxGeometry x="420" y="680" width="100" height="40" as="geometry" />
        </mxCell>
        <mxCell id="9MxUiUl3JJpYLOgqMqzK-39" value="(0,1)" style="text;html=1;align=center;verticalAlign=middle;resizable=0;points=[];autosize=1;strokeColor=none;fillColor=none;fontSize=11;fontFamily=Helvetica;fontColor=default;" vertex="1" parent="1">
          <mxGeometry x="290" y="580" width="50" height="30" as="geometry" />
        </mxCell>
        <mxCell id="9MxUiUl3JJpYLOgqMqzK-40" value="(0,1)" style="text;html=1;align=center;verticalAlign=middle;resizable=0;points=[];autosize=1;strokeColor=none;fillColor=none;fontSize=11;fontFamily=Helvetica;fontColor=default;" vertex="1" parent="1">
          <mxGeometry x="440" y="580" width="50" height="30" as="geometry" />
        </mxCell>
        <mxCell id="9MxUiUl3JJpYLOgqMqzK-41" value="(1,1)" style="text;html=1;align=center;verticalAlign=middle;resizable=0;points=[];autosize=1;strokeColor=none;fillColor=none;fontSize=11;fontFamily=Helvetica;fontColor=default;" vertex="1" parent="1">
          <mxGeometry x="380" y="500" width="50" height="30" as="geometry" />
        </mxCell>
        <mxCell id="9MxUiUl3JJpYLOgqMqzK-43" style="edgeStyle=none;shape=connector;rounded=0;orthogonalLoop=1;jettySize=auto;html=1;labelBackgroundColor=default;strokeColor=default;align=center;verticalAlign=middle;fontFamily=Helvetica;fontSize=11;fontColor=default;endArrow=none;endFill=0;" edge="1" parent="1" source="9MxUiUl3JJpYLOgqMqzK-42" target="9MxUiUl3JJpYLOgqMqzK-21">
          <mxGeometry relative="1" as="geometry" />
        </mxCell>
        <mxCell id="9MxUiUl3JJpYLOgqMqzK-42" value="dni" style="ellipse;whiteSpace=wrap;html=1;align=center;" vertex="1" parent="1">
          <mxGeometry x="710" y="525" width="100" height="40" as="geometry" />
        </mxCell>
        <mxCell id="9MxUiUl3JJpYLOgqMqzK-44" value="nombre" style="ellipse;whiteSpace=wrap;html=1;align=center;" vertex="1" parent="1">
          <mxGeometry x="810" y="500" width="100" height="40" as="geometry" />
        </mxCell>
        <mxCell id="9MxUiUl3JJpYLOgqMqzK-46" style="edgeStyle=none;shape=connector;rounded=0;orthogonalLoop=1;jettySize=auto;html=1;labelBackgroundColor=default;strokeColor=default;align=center;verticalAlign=middle;fontFamily=Helvetica;fontSize=11;fontColor=default;endArrow=none;endFill=0;" edge="1" parent="1" source="9MxUiUl3JJpYLOgqMqzK-45" target="9MxUiUl3JJpYLOgqMqzK-21">
          <mxGeometry relative="1" as="geometry" />
        </mxCell>
        <mxCell id="9MxUiUl3JJpYLOgqMqzK-45" value="apellidos" style="ellipse;whiteSpace=wrap;html=1;align=center;" vertex="1" parent="1">
          <mxGeometry x="840" y="457" width="100" height="40" as="geometry" />
        </mxCell>
        <mxCell id="9MxUiUl3JJpYLOgqMqzK-48" style="edgeStyle=none;shape=connector;rounded=0;orthogonalLoop=1;jettySize=auto;html=1;labelBackgroundColor=default;strokeColor=default;align=center;verticalAlign=middle;fontFamily=Helvetica;fontSize=11;fontColor=default;endArrow=none;endFill=0;" edge="1" parent="1" source="9MxUiUl3JJpYLOgqMqzK-47" target="9MxUiUl3JJpYLOgqMqzK-21">
          <mxGeometry relative="1" as="geometry" />
        </mxCell>
        <mxCell id="9MxUiUl3JJpYLOgqMqzK-47" value="dirección" style="ellipse;whiteSpace=wrap;html=1;align=center;" vertex="1" parent="1">
          <mxGeometry x="830" y="414" width="100" height="40" as="geometry" />
        </mxCell>
        <mxCell id="9MxUiUl3JJpYLOgqMqzK-50" style="edgeStyle=none;shape=connector;rounded=0;orthogonalLoop=1;jettySize=auto;html=1;labelBackgroundColor=default;strokeColor=default;align=center;verticalAlign=middle;fontFamily=Helvetica;fontSize=11;fontColor=default;endArrow=none;endFill=0;" edge="1" parent="1" source="9MxUiUl3JJpYLOgqMqzK-49" target="9MxUiUl3JJpYLOgqMqzK-21">
          <mxGeometry relative="1" as="geometry" />
        </mxCell>
        <mxCell id="9MxUiUl3JJpYLOgqMqzK-49" value="teléfono" style="ellipse;whiteSpace=wrap;html=1;align=center;" vertex="1" parent="1">
          <mxGeometry x="820" y="370" width="100" height="40" as="geometry" />
        </mxCell>
        <mxCell id="9MxUiUl3JJpYLOgqMqzK-53" value="(1,n)" style="text;html=1;align=center;verticalAlign=middle;resizable=0;points=[];autosize=1;strokeColor=none;fillColor=none;fontSize=11;fontFamily=Helvetica;fontColor=default;" vertex="1" parent="1">
          <mxGeometry x="378" y="238" width="50" height="30" as="geometry" />
        </mxCell>
        <mxCell id="9MxUiUl3JJpYLOgqMqzK-54" value="(1,n)" style="text;html=1;align=center;verticalAlign=middle;resizable=0;points=[];autosize=1;strokeColor=none;fillColor=none;fontSize=11;fontFamily=Helvetica;fontColor=default;" vertex="1" parent="1">
          <mxGeometry x="380" y="400" width="50" height="30" as="geometry" />
        </mxCell>
        <mxCell id="9MxUiUl3JJpYLOgqMqzK-55" value="N:M" style="text;html=1;align=center;verticalAlign=middle;resizable=0;points=[];autosize=1;strokeColor=none;fillColor=none;fontSize=11;fontFamily=Helvetica;fontColor=default;" vertex="1" parent="1">
          <mxGeometry x="450" y="315" width="40" height="30" as="geometry" />
        </mxCell>
        <mxCell id="9MxUiUl3JJpYLOgqMqzK-56" value="(1,n)" style="text;html=1;align=center;verticalAlign=middle;resizable=0;points=[];autosize=1;strokeColor=none;fillColor=none;fontSize=11;fontFamily=Helvetica;fontColor=default;" vertex="1" parent="1">
          <mxGeometry x="433" y="425" width="50" height="30" as="geometry" />
        </mxCell>
        <mxCell id="9MxUiUl3JJpYLOgqMqzK-57" value="(1,1)" style="text;html=1;align=center;verticalAlign=middle;resizable=0;points=[];autosize=1;strokeColor=none;fillColor=none;fontSize=11;fontFamily=Helvetica;fontColor=default;" vertex="1" parent="1">
          <mxGeometry x="638" y="424" width="50" height="30" as="geometry" />
        </mxCell>
        <mxCell id="9MxUiUl3JJpYLOgqMqzK-58" value="N:1" style="text;html=1;align=center;verticalAlign=middle;resizable=0;points=[];autosize=1;strokeColor=none;fillColor=none;fontSize=11;fontFamily=Helvetica;fontColor=default;" vertex="1" parent="1">
          <mxGeometry x="540" y="393" width="40" height="30" as="geometry" />
        </mxCell>
        <mxCell id="9MxUiUl3JJpYLOgqMqzK-61" style="edgeStyle=none;shape=connector;rounded=0;orthogonalLoop=1;jettySize=auto;html=1;labelBackgroundColor=default;strokeColor=default;align=center;verticalAlign=middle;fontFamily=Helvetica;fontSize=11;fontColor=default;endArrow=none;endFill=0;" edge="1" parent="1" source="9MxUiUl3JJpYLOgqMqzK-60" target="9MxUiUl3JJpYLOgqMqzK-3">
          <mxGeometry relative="1" as="geometry" />
        </mxCell>
        <mxCell id="9MxUiUl3JJpYLOgqMqzK-60" value="id" style="ellipse;whiteSpace=wrap;html=1;align=center;fontStyle=4;" vertex="1" parent="1">
          <mxGeometry x="180" y="200" width="100" height="40" as="geometry" />
        </mxCell>
        <mxCell id="9MxUiUl3JJpYLOgqMqzK-71" style="edgeStyle=none;shape=connector;rounded=0;orthogonalLoop=1;jettySize=auto;html=1;labelBackgroundColor=default;strokeColor=default;align=center;verticalAlign=middle;fontFamily=Helvetica;fontSize=11;fontColor=default;endArrow=none;endFill=0;" edge="1" parent="1" source="9MxUiUl3JJpYLOgqMqzK-62" target="9MxUiUl3JJpYLOgqMqzK-3">
          <mxGeometry relative="1" as="geometry" />
        </mxCell>
        <mxCell id="9MxUiUl3JJpYLOgqMqzK-62" value="dni" style="ellipse;whiteSpace=wrap;html=1;align=center;" vertex="1" parent="1">
          <mxGeometry x="210" y="130" width="100" height="40" as="geometry" />
        </mxCell>
        <mxCell id="9MxUiUl3JJpYLOgqMqzK-70" style="edgeStyle=none;shape=connector;rounded=0;orthogonalLoop=1;jettySize=auto;html=1;labelBackgroundColor=default;strokeColor=default;align=center;verticalAlign=middle;fontFamily=Helvetica;fontSize=11;fontColor=default;endArrow=none;endFill=0;" edge="1" parent="1" source="9MxUiUl3JJpYLOgqMqzK-63" target="9MxUiUl3JJpYLOgqMqzK-3">
          <mxGeometry relative="1" as="geometry" />
        </mxCell>
        <mxCell id="9MxUiUl3JJpYLOgqMqzK-63" value="nombre" style="ellipse;whiteSpace=wrap;html=1;align=center;" vertex="1" parent="1">
          <mxGeometry x="280" y="90" width="100" height="40" as="geometry" />
        </mxCell>
        <mxCell id="9MxUiUl3JJpYLOgqMqzK-69" style="edgeStyle=none;shape=connector;rounded=0;orthogonalLoop=1;jettySize=auto;html=1;labelBackgroundColor=default;strokeColor=default;align=center;verticalAlign=middle;fontFamily=Helvetica;fontSize=11;fontColor=default;endArrow=none;endFill=0;" edge="1" parent="1" source="9MxUiUl3JJpYLOgqMqzK-64" target="9MxUiUl3JJpYLOgqMqzK-3">
          <mxGeometry relative="1" as="geometry" />
        </mxCell>
        <mxCell id="9MxUiUl3JJpYLOgqMqzK-64" value="apellidos" style="ellipse;whiteSpace=wrap;html=1;align=center;" vertex="1" parent="1">
          <mxGeometry x="390" y="90" width="100" height="40" as="geometry" />
        </mxCell>
        <mxCell id="9MxUiUl3JJpYLOgqMqzK-68" style="edgeStyle=none;shape=connector;rounded=0;orthogonalLoop=1;jettySize=auto;html=1;labelBackgroundColor=default;strokeColor=default;align=center;verticalAlign=middle;fontFamily=Helvetica;fontSize=11;fontColor=default;endArrow=none;endFill=0;" edge="1" parent="1" source="9MxUiUl3JJpYLOgqMqzK-65" target="9MxUiUl3JJpYLOgqMqzK-3">
          <mxGeometry relative="1" as="geometry" />
        </mxCell>
        <mxCell id="9MxUiUl3JJpYLOgqMqzK-65" value="fecha de contratacion" style="ellipse;whiteSpace=wrap;html=1;align=center;" vertex="1" parent="1">
          <mxGeometry x="490" y="130" width="100" height="40" as="geometry" />
        </mxCell>
        <mxCell id="9MxUiUl3JJpYLOgqMqzK-67" style="edgeStyle=none;shape=connector;rounded=0;orthogonalLoop=1;jettySize=auto;html=1;labelBackgroundColor=default;strokeColor=default;align=center;verticalAlign=middle;fontFamily=Helvetica;fontSize=11;fontColor=default;endArrow=none;endFill=0;" edge="1" parent="1" source="9MxUiUl3JJpYLOgqMqzK-66" target="9MxUiUl3JJpYLOgqMqzK-3">
          <mxGeometry relative="1" as="geometry" />
        </mxCell>
        <mxCell id="9MxUiUl3JJpYLOgqMqzK-66" value="salario" style="ellipse;whiteSpace=wrap;html=1;align=center;" vertex="1" parent="1">
          <mxGeometry x="540" y="198" width="100" height="40" as="geometry" />
        </mxCell>
      </root>
    </mxGraphModel>
  </diagram>
</mxfile>
